<?xml version="1.0" encoding="UTF-8"?>
<svg xmlns="http://www.w3.org/2000/svg"
     viewBox="0 0 1024 1024"
     width="1024"
     height="1024"
     role="img"
     aria-labelledby="title desc">
  <title id="title">Mora C2M-H1 folded-passage mark</title>
  <desc id="desc">
    A faithful flat-vector reconstruction of the selected C2M-H1 ImageGen
    silhouette. The source proportions, open upper taper, central fold, long
    lower plane, and optical placement are preserved; raster lighting, texture,
    and antialias noise are omitted.
  </desc>
  <path id="folded-passage"
        d="
          M 232.7 427.1
          C 232.7 417.5 243.8 411.1 256.4 408.3
          L 608.4 317.7
          Q 614.1 317.0 614.1 325.8
          L 614.1 400.9
          Q 614.1 414.2 606.7 420.5
          L 373.2 482.6
          L 259.7 453.2
          L 466.3 520.2
          Q 471.2 522.0 471.2 532.0
          L 471.2 597.7
          L 785.6 567.5
          Q 791.3 567.5 791.3 574.1
          L 790.5 680.2
          Q 790.5 686.7 779.8 686.7
          L 295.6 725.9
          C 275.0 727.6 260.2 724.8 253.1 721.9
          C 239.8 716.5 232.7 706.8 232.7 698.2
          Z

          M 244.2 599.4
          Q 253.0 607.0 267.8 613.3
          Q 282.0 616.0 299.7 614.9
          L 462.2 598.6
          L 462.2 534.9
          Z"
        fill="#F7F3EA"
        fill-rule="evenodd"
        shape-rendering="geometricPrecision" />
</svg>
